<svg width="142" height="76" viewBox="0 0 142 76" fill="none" xmlns="http://www.w3.org/2000/svg">
<path d="M31.3383 71.6703C31.3383 71.6703 31.0203 71.3725 30.5199 70.8958C30.0027 70.4339 29.3436 69.7512 28.6206 69.0235C27.8809 68.3107 27.1276 67.5083 26.4291 66.7948C25.692 66.0916 25.0554 65.4547 24.5635 65.0481C23.5557 64.2622 22.4502 64.1547 21.2131 63.865C19.9689 63.5875 18.4759 63.2318 16.8703 61.7986C16.464 61.4415 16.5636 61.7358 16.9728 62.413C17.1748 62.7419 17.4491 63.186 17.8039 63.6603C18.1685 64.1321 18.5871 64.6514 19.0329 65.1945C19.9006 66.3079 21.0273 67.3829 21.9895 68.3467C22.9923 69.2686 23.9214 69.9928 24.4854 70.3593C25.7109 71.1076 27.466 71.4759 28.8634 71.6295C30.26 71.7419 31.3383 71.6703 31.3383 71.6703Z" fill="url(#paint0_linear_6_589)"/>
<path d="M25.9219 56.402C26.163 58.1905 25.9546 59.4991 25.708 60.7039C25.4544 61.921 25.2753 62.9526 25.7675 64.0941C26.0052 64.6722 26.4764 65.426 27.0983 66.2014C27.6938 66.9943 28.4014 67.8193 29.1192 68.5276C29.8228 69.2605 30.4935 69.909 31.0248 70.3464C31.5465 70.7864 31.8715 71.072 31.8715 71.072C31.8715 71.072 31.8193 69.9886 31.6393 68.6599C31.4927 67.3015 31.2525 65.7095 30.7629 64.5776C30.5451 64.0355 30.0288 63.1904 29.4569 62.2151C28.9281 61.2077 28.2286 60.1424 27.7165 59.1201C27.446 58.6128 27.1762 58.1468 26.9413 57.7335C26.7063 57.3203 26.5351 56.952 26.368 56.6759C26.0388 56.1429 25.8563 55.964 25.9219 56.402Z" fill="url(#paint1_linear_6_589)"/>
<path d="M23.9877 63.7115C23.9877 63.7115 23.72 63.3692 23.3463 62.786C22.963 62.2054 22.4332 61.426 21.8634 60.5745C21.3367 59.6907 20.7365 58.7644 20.1816 57.9296C19.6723 57.0722 19.1696 56.3166 18.7394 55.8314C17.8982 54.8559 16.9264 54.4744 15.7289 53.9463C14.5147 53.4331 13.2603 52.6926 11.9261 50.9588C11.2854 50.0745 12.0178 52.2283 13.2975 54.7635C13.9638 56.0136 14.7146 57.3861 15.5288 58.493C15.9166 59.0517 16.2941 59.5717 16.6289 60.01C16.9805 60.4334 17.2991 60.7725 17.5481 61.0061C18.073 61.4969 18.7402 61.9393 19.4306 62.3134C20.1473 62.67 20.9039 62.9435 21.5721 63.1579C22.25 63.3696 22.8493 63.5197 23.2777 63.6119C23.7107 63.6822 23.9877 63.7115 23.9877 63.7115Z" fill="url(#paint2_linear_6_589)"/>
<path d="M21.9547 47.7022C21.875 49.4524 21.244 50.7293 20.804 51.8307C20.3448 52.9372 19.8571 53.9375 20.12 55.1508C20.2515 55.7575 20.5662 56.5842 20.9648 57.492C21.3993 58.3797 21.9512 59.3189 22.4534 60.1886C23.0013 61.0356 23.5575 61.7976 23.955 62.3537C24.3428 62.9124 24.6369 63.2373 24.6369 63.2373C24.6369 63.2373 24.6688 62.97 24.7198 62.5422C24.7779 62.1021 24.8622 61.4894 24.9213 60.8214C24.9901 60.1507 25.031 59.4151 25.036 58.6994C25.0673 57.9663 25.0433 57.2584 24.9144 56.6614C24.8586 56.3761 24.7384 56.0046 24.5929 55.5777C24.4739 55.1334 24.3174 54.6266 24.1435 54.0934C23.757 53.0375 23.438 51.8082 23.0972 50.7296C22.4878 48.5325 22.0226 46.8351 21.9547 47.7022Z" fill="url(#paint3_linear_6_589)"/>
<path d="M18.611 54.6959C18.611 54.6959 18.4514 54.2935 18.1956 53.6478C17.9397 53.002 17.5419 52.1354 17.2199 51.1657C16.4601 49.2573 15.801 46.9907 15.1684 45.8661C14.6227 44.7182 13.7008 44.137 12.6519 43.3517C11.6029 42.5665 10.5504 41.5751 9.61207 39.58C9.178 38.5782 9.45125 40.8343 10.0897 43.6035C10.5081 44.9718 10.8829 46.4864 11.45 47.7528C11.9977 49.0243 12.4622 50.1008 12.8693 50.6543C13.7358 51.8404 15.0693 52.9532 16.359 53.6326C17.6102 54.3222 18.611 54.6959 18.611 54.6959Z" fill="url(#paint4_linear_6_589)"/>
<path d="M20.1146 38.6708C19.6651 40.3545 18.7691 41.4538 18.0675 42.4286C17.3658 43.4034 16.7253 44.2584 16.6592 45.5184C16.6677 46.7481 17.1478 49.042 17.8709 50.9292C18.1709 51.8944 18.5829 52.7365 18.8651 53.3648C19.1545 53.9809 19.3308 54.3685 19.3308 54.3685C19.3308 54.3685 19.7309 53.3503 20.1216 52.0653C20.4737 50.7908 21.0245 49.2145 20.9948 48.0216C20.978 47.4567 20.9491 46.4602 20.8189 45.3563C20.6695 44.2575 20.6769 42.9718 20.5442 41.8582C20.4867 39.596 20.3674 37.8369 20.1146 38.6708Z" fill="url(#paint5_linear_6_589)"/>
<path d="M15.2528 44.4044C15.2528 44.4044 15.1776 43.9691 15.0666 43.2845C14.917 42.6102 14.8379 41.6583 14.6995 40.6394C14.6255 40.1312 14.5559 39.6012 14.4793 39.0833C14.4316 38.5578 14.384 38.0322 14.3318 37.5285C14.2398 36.5283 14.0403 35.6293 13.9352 35.0052C13.6645 33.7629 12.897 32.9851 12.0481 31.9806C11.2333 30.9876 10.4029 29.7814 9.95456 27.6447C9.74006 26.5737 9.53533 28.8233 9.50522 31.6474C9.59451 33.0625 9.67175 34.6257 9.8692 35.9808C10.1079 37.3352 10.3676 38.4976 10.5796 39.1344C11.1094 40.4936 12.2654 41.8713 13.2715 42.8441C14.3477 43.8084 15.2528 44.4044 15.2528 44.4044Z" fill="url(#paint6_linear_6_589)"/>
<path d="M15.4711 35.0181C15.2702 35.6206 15.2584 36.5038 15.2215 37.4868C15.208 37.977 15.2144 38.5033 15.2279 39.0173C15.2852 39.5403 15.3399 40.0537 15.3921 40.5573C15.506 41.5621 15.6115 42.4966 15.7875 43.1534C15.9345 43.818 16.0361 44.236 16.0361 44.236C16.0361 44.236 16.6444 43.3379 17.2994 42.1893C18.0317 41.0199 18.8185 39.6289 19.1044 38.4549C19.2648 37.8942 19.4182 36.9214 19.5476 35.8204C19.7061 34.7116 19.9519 33.4655 20.0859 32.3426C20.5624 30.1029 20.807 28.3499 20.3905 29.1137C19.5653 30.6703 18.4642 31.5451 17.5363 32.3321C16.6302 33.1236 15.8194 33.8067 15.4711 35.0181Z" fill="url(#paint7_linear_6_589)"/>
<path d="M14.3452 33.5598C14.3452 33.5598 14.3699 33.1495 14.4026 32.4988C14.4037 31.8463 14.5515 30.9681 14.6347 30.0037C14.7599 28.0756 15.1599 25.8979 15.0644 24.6915C15.0005 23.487 14.5061 22.6463 13.9109 21.5842C13.3376 20.5265 12.6926 19.2396 12.7224 17.2646C12.7334 16.7647 12.5823 17.0122 12.3609 17.6927C12.2454 18.0343 12.1171 18.4828 11.9683 19.0092C11.8536 19.5472 11.7474 20.1554 11.6419 20.8049C11.1271 23.3654 11.04 26.5566 11.1723 27.7842C11.4084 29.1289 12.1587 30.6154 12.8685 31.7193C13.6416 32.827 14.3452 33.5598 14.3452 33.5598Z" fill="url(#paint8_linear_6_589)"/>
<path d="M22.1843 20.3922C21.0418 21.6922 19.9636 22.3434 18.9665 22.9109C17.979 23.4757 17.0411 23.9548 16.5347 25.0015C16.0722 26.0572 15.4944 28.1894 15.3491 30.0814C15.251 31.0291 15.1323 31.8995 15.1601 32.5443C15.1564 33.1871 15.1607 33.5897 15.1607 33.5897C15.1607 33.5897 15.8961 32.8957 16.7492 31.9839C17.6628 31.0662 18.6992 29.9499 19.1862 28.9083C19.7229 27.9363 20.4858 25.4129 21.3298 23.3853C21.5128 22.8704 21.6842 22.3897 21.8396 21.965C22.0169 21.5448 22.1659 21.1736 22.2654 20.8881C22.4425 20.3127 22.4602 20.0698 22.1843 20.3922Z" fill="url(#paint9_linear_6_589)"/>
<path d="M15.7244 23.407C15.7244 23.407 16.1522 21.874 16.6654 20.0801C17.2688 18.3137 17.8183 16.2305 18.0418 15.0939C18.3888 12.7958 16.3768 11.43 16.9269 7.6488C17.0687 6.7101 16.2083 8.4832 15.3428 10.8167C14.9603 12.0166 14.5703 13.3428 14.2625 14.5123C13.9669 15.6889 13.849 16.7557 13.813 17.3555C13.79 18.0035 13.8745 18.7055 14.0293 19.3991C14.1938 20.0901 14.4626 20.7842 14.7152 21.3791C15.2203 22.5689 15.7244 23.407 15.7244 23.407Z" fill="url(#paint10_linear_6_589)"/>
<path d="M19.4093 15.6385C18.6651 16.5316 17.9615 18.5422 17.3503 20.2796C17.0667 21.1527 16.8989 21.9948 16.7392 22.5967C16.6015 23.203 16.5085 23.5902 16.5085 23.5902C16.5085 23.5902 17.3659 23.081 18.3655 22.368C18.8713 22.015 19.3907 21.5963 19.91 21.1777C20.439 20.7564 20.919 20.3068 21.2631 19.8523C21.6053 19.4293 22.0088 18.6172 22.5637 17.7128C23.1281 16.8058 23.7195 15.7673 24.2324 14.8224C25.3607 12.9672 26.197 11.4904 25.5683 12.0419C23.0156 14.2995 20.7856 13.8203 19.4093 15.6385Z" fill="url(#paint11_linear_6_589)"/>
<path d="M19.0033 14.7017C19.1842 14.6429 20.038 14.352 21.0072 13.5643C21.986 12.7741 23.2149 11.5648 24.0749 9.48121C24.5164 8.61751 25.1703 6.53738 25.8327 4.52747C26.5466 2.55549 27.1665 0.619057 27.1974 -1.49208e-05C26.6534 0.249281 25.1012 1.56586 23.5158 3.06736C21.9794 4.59714 20.498 6.37099 19.9084 7.22263C18.6966 9.30728 18.3458 11.0888 18.4285 12.4021C18.5164 13.7348 18.9058 14.5311 19.0033 14.7017Z" fill="url(#paint12_linear_6_589)"/>
<path d="M109.488 71.0746C109.488 71.0746 109.81 70.7986 110.334 70.349C110.866 69.9116 111.536 69.2631 112.24 68.5302C112.968 67.8245 113.668 66.9872 114.261 66.204C114.88 65.4382 115.351 64.6845 115.592 64.0966C116.084 62.9551 115.915 61.9262 115.651 60.7065C115.405 59.5016 115.189 58.1809 115.437 56.4046C115.503 55.9666 115.32 56.1455 115.001 56.681C114.836 56.9475 114.663 57.3254 114.428 57.7387C114.183 58.1494 113.923 58.618 113.652 59.1253C113.138 60.1573 112.441 61.2128 111.912 62.2203C111.34 63.1955 110.824 64.0407 110.606 64.5828C110.116 65.7146 109.876 67.3067 109.73 68.6651C109.543 69.9815 109.488 71.0746 109.488 71.0746Z" fill="url(#paint13_linear_6_589)"/>
<path d="M124.489 61.8012C122.883 63.2344 121.39 63.5902 120.146 63.8676C118.911 64.1476 117.803 64.2648 116.796 65.0508C116.297 65.445 115.657 66.0916 114.933 66.7878C114.234 67.5013 113.478 68.3133 112.741 69.0165C112.018 69.7442 111.359 70.4268 110.842 70.8887C110.341 71.3654 110.023 71.6633 110.023 71.6633C110.023 71.6633 111.092 71.7322 112.523 71.6083C113.918 71.4644 115.675 71.0865 116.901 70.3381C117.465 69.9716 118.391 69.2571 119.397 68.3256C120.356 67.3714 121.486 66.2867 122.353 65.1734C122.799 64.6302 123.218 64.1109 123.582 63.6392C123.937 63.1648 124.199 62.7278 124.413 62.3918C124.796 61.7384 124.895 61.4442 124.489 61.8012Z" fill="url(#paint14_linear_6_589)"/>
<path d="M116.722 63.2399C116.722 63.2399 117.013 62.9246 117.404 62.3563C117.801 61.8002 118.355 61.0479 118.905 60.1912C119.42 59.3145 119.962 58.3727 120.394 57.4946C120.792 56.5868 121.097 55.7575 121.239 55.1534C121.501 53.9402 121.016 52.9302 120.555 51.8333C120.112 50.7415 119.481 49.4647 119.404 47.7048C119.339 46.828 118.871 48.5351 118.254 50.72C117.914 51.7986 117.594 53.0279 117.208 54.0838C117.034 54.617 116.878 55.1237 116.759 55.5681C116.611 56.0046 116.502 56.3691 116.437 56.6518C116.308 57.2488 116.284 57.9567 116.315 58.6898C116.311 59.4028 116.361 60.1411 116.43 60.8118C116.499 61.4824 116.574 62.0925 116.632 62.5325C116.69 62.9726 116.722 63.2399 116.722 63.2399Z" fill="url(#paint15_linear_6_589)"/>
<path d="M129.426 50.9492C128.092 52.6829 126.837 53.4235 125.623 53.9367C124.416 54.4622 123.454 54.8463 122.613 55.8218C122.192 56.3096 121.689 57.0652 121.17 57.92C120.615 58.7548 120.015 59.6811 119.489 60.5649C118.919 61.4164 118.386 62.2055 118.006 62.7764C117.632 63.3596 117.364 63.7019 117.364 63.7019C117.364 63.7019 117.632 63.6701 118.079 63.583C118.508 63.4907 119.107 63.3407 119.785 63.129C120.453 62.9146 121.212 62.6315 121.927 62.2845C122.617 61.9104 123.284 61.468 123.809 60.9771C124.058 60.7436 124.377 60.4045 124.728 59.9811C125.063 59.5428 125.438 59.0325 125.828 58.4641C126.643 57.3572 127.393 55.9847 128.06 54.7346C129.334 52.2187 130.067 50.0649 129.426 50.9492Z" fill="url(#paint16_linear_6_589)"/>
<path d="M122.009 54.366C122.009 54.366 122.185 53.9784 122.474 53.3623C122.754 52.7436 123.166 51.9015 123.469 50.9266C124.192 49.0395 124.672 46.7456 124.68 45.5159C124.612 44.2655 123.974 43.4009 123.272 42.4261C122.571 41.4513 121.675 40.3519 121.225 38.6682C120.972 37.8344 120.853 39.5934 120.786 41.8531C120.653 42.9666 120.663 44.2427 120.511 45.3511C120.381 46.4551 120.362 47.4541 120.335 48.0165C120.303 49.2191 120.863 50.7979 121.208 52.0602C121.618 53.3503 122.009 54.366 122.009 54.366Z" fill="url(#paint17_linear_6_589)"/>
<path d="M131.737 39.58C130.808 41.5777 129.753 42.5787 128.697 43.3517C127.648 44.137 126.726 44.7182 126.181 45.8661C125.545 47.0003 124.889 49.2573 124.129 51.1657C123.805 52.1451 123.419 53.0046 123.153 53.6477C122.898 54.2935 122.738 54.6959 122.738 54.6959C122.738 54.6959 123.739 54.3222 124.983 53.6203C126.273 52.941 127.606 51.8282 128.473 50.642C128.88 50.0885 129.344 49.0121 129.892 47.7405C130.459 46.4741 130.834 44.9595 131.252 43.5912C131.9 40.8247 132.171 38.5782 131.737 39.58Z" fill="url(#paint18_linear_6_589)"/>
<path d="M125.311 44.2457C125.311 44.2457 125.403 43.8252 125.559 43.1632C125.735 42.5064 125.841 41.5718 125.955 40.5671C126.007 40.0634 126.064 39.5404 126.119 39.0271C126.135 38.5034 126.129 37.9842 126.125 37.4966C126.088 36.5136 126.089 35.6233 125.876 35.0279C125.525 33.8261 124.717 33.1333 123.82 32.3444C122.892 31.5574 121.791 30.6827 120.966 29.126C120.549 28.3622 120.794 30.1152 121.271 32.3549C121.405 33.4778 121.65 34.7239 121.809 35.8327C121.936 36.9434 122.089 37.9163 122.252 38.4672C122.538 39.6412 123.325 41.0322 124.057 42.2016C124.715 43.3406 125.311 44.2457 125.311 44.2457Z" fill="url(#paint19_linear_6_589)"/>
<path d="M127.411 35.0148C127.306 35.6389 127.107 36.5379 127.015 37.5382C126.972 38.0444 126.917 38.5577 126.867 39.093C126.798 39.623 126.718 40.1505 126.647 40.649C126.508 41.6679 126.432 42.6102 126.28 43.2941C126.159 43.9761 126.094 44.4141 126.094 44.4141C126.094 44.4141 126.996 43.8277 128.065 42.8511C129.062 41.8758 130.227 40.5006 130.757 39.1414C130.979 38.5072 131.226 37.3519 131.468 35.9879C131.675 34.6354 131.752 33.0721 131.831 31.6544C131.801 28.8304 131.604 26.593 131.392 27.6543C130.934 29.7885 130.113 30.9972 129.298 31.9902C128.452 32.985 127.694 33.7655 127.411 35.0148Z" fill="url(#paint20_linear_6_589)"/>
<path d="M126.198 33.5924C126.198 33.5924 126.193 33.1872 126.199 32.5469C126.227 31.9022 126.098 31.0292 126.01 30.0841C125.867 28.1824 125.297 26.0624 124.824 25.0041C124.318 23.9574 123.38 23.4783 122.393 22.9135C121.395 22.3461 120.315 21.7045 119.175 20.3949C118.899 20.0725 118.917 20.3153 119.116 20.8863C119.215 21.1718 119.354 21.5404 119.541 21.9632C119.697 22.3879 119.866 22.8783 120.051 23.3835C120.895 25.4111 121.658 27.9345 122.195 28.9065C122.672 29.9455 123.708 31.0618 124.632 31.9821C125.463 32.8984 126.198 33.5924 126.198 33.5924Z" fill="url(#paint21_linear_6_589)"/>
<path d="M128.617 17.262C128.657 19.2396 128.014 20.5169 127.429 21.5816C126.834 22.6437 126.339 23.4844 126.275 24.6889C126.177 25.905 126.58 28.073 126.705 30.0011C126.788 30.9655 126.936 31.8437 126.937 32.4962C126.97 33.1469 126.994 33.5572 126.994 33.5572C126.994 33.5572 127.698 32.8244 128.471 31.7167C129.178 30.6225 129.931 29.1264 130.167 27.7817C130.3 26.5541 130.222 23.3654 129.698 20.8023C129.59 20.1625 129.476 19.5421 129.371 19.0066C129.232 18.4828 129.094 18.0317 128.979 17.6902C128.767 17.0123 128.616 16.7647 128.617 17.262Z" fill="url(#paint22_linear_6_589)"/>
<path d="M124.85 23.5928C124.85 23.5928 124.767 23.2081 124.62 22.5992C124.46 21.9974 124.302 21.1578 124.009 20.2821C123.388 18.5421 122.684 16.5315 121.95 15.641C120.564 13.8203 118.334 14.2994 115.8 12.047C115.172 11.4955 116.008 12.9723 117.136 14.8275C117.649 15.7725 118.24 16.8109 118.805 17.7179C119.347 18.6294 119.763 19.4344 120.105 19.8574C120.45 20.312 120.93 20.7615 121.459 21.1828C121.978 21.6015 122.488 22.0176 123.003 22.3731C123.993 23.0835 124.85 23.5928 124.85 23.5928Z" fill="url(#paint23_linear_6_589)"/>
<path d="M123.307 15.0939C123.533 16.2208 124.083 18.304 124.684 20.08C125.194 21.8836 125.625 23.4069 125.625 23.4069C125.625 23.4069 126.139 22.5714 126.644 21.3816C126.887 20.7841 127.165 20.0927 127.33 19.4017C127.484 18.7081 127.569 18.0061 127.546 17.358C127.51 16.7583 127.392 15.6914 127.096 14.5148C126.789 13.3453 126.399 12.0192 126.016 10.8193C125.151 8.48575 124.293 6.70298 124.432 7.65135C124.972 11.43 122.96 12.7958 123.307 15.0939Z" fill="url(#paint24_linear_6_589)"/>
<path d="M122.346 14.7017C122.434 14.5286 122.833 13.7348 122.918 12.4118C123.001 11.0985 122.65 9.31694 121.438 7.23228C120.849 6.38065 119.37 4.59714 117.831 3.07702C116.246 1.57552 114.693 0.258939 114.149 0.00964355C114.18 0.628715 114.8 2.56515 115.514 4.53712C116.179 6.53738 116.833 8.6175 117.272 9.49086C118.122 11.5719 119.351 12.7811 120.34 13.574C121.321 14.3546 122.165 14.6429 122.346 14.7017Z" fill="url(#paint25_linear_6_589)"/>
<path d="M55.997 15.0909V34H52.5716V18.424H52.4608L48.0382 21.2493V18.1101L52.7378 15.0909H55.997ZM60.5828 15.0909H64.7746L70.3882 28.7926H70.6098L76.2235 15.0909H80.4152V34H77.1283V21.0092H76.9529L71.727 33.9446H69.271L64.0452 20.9815H63.8698V34H60.5828V15.0909ZM89.1743 30.9716V18.1932H92.0735V30.9716H89.1743ZM84.2347 26.032V23.1328H97.0131V26.032H84.2347Z" fill="#F05321"/>
<path d="M40.8204 55H37.5243V44.8182H40.9248C41.9225 44.8182 42.7792 45.022 43.4952 45.4297C44.2111 45.834 44.7596 46.4157 45.1407 47.1747C45.5252 47.9304 45.7175 48.8369 45.7175 49.8942C45.7175 50.9548 45.5236 51.8662 45.1358 52.6286C44.7513 53.3909 44.1945 53.9775 43.4653 54.3885C42.7362 54.7962 41.8545 55 40.8204 55ZM39.0605 53.6577H40.7359C41.5115 53.6577 42.1561 53.5118 42.6699 53.2202C43.1836 52.9252 43.5681 52.4993 43.8233 51.9425C44.0785 51.3823 44.2061 50.6996 44.2061 49.8942C44.2061 49.0954 44.0785 48.4176 43.8233 47.8608C43.5714 47.304 43.1952 46.8814 42.6947 46.593C42.1943 46.3047 41.5728 46.1605 40.8304 46.1605H39.0605V53.6577ZM50.3251 55.1541C49.6092 55.1541 48.9844 54.9901 48.4508 54.6619C47.9172 54.3338 47.5029 53.8748 47.2079 53.2848C46.9129 52.6948 46.7654 52.0054 46.7654 51.2166C46.7654 50.4245 46.9129 49.7318 47.2079 49.1385C47.5029 48.5452 47.9172 48.0845 48.4508 47.7564C48.9844 47.4283 49.6092 47.2642 50.3251 47.2642C51.041 47.2642 51.6658 47.4283 52.1994 47.7564C52.733 48.0845 53.1473 48.5452 53.4423 49.1385C53.7373 49.7318 53.8847 50.4245 53.8847 51.2166C53.8847 52.0054 53.7373 52.6948 53.4423 53.2848C53.1473 53.8748 52.733 54.3338 52.1994 54.6619C51.6658 54.9901 51.041 55.1541 50.3251 55.1541ZM50.3301 53.9062C50.7941 53.9062 51.1785 53.7836 51.4835 53.5384C51.7884 53.2931 52.0138 52.9666 52.1596 52.5589C52.3088 52.1513 52.3833 51.7022 52.3833 51.2116C52.3833 50.7244 52.3088 50.277 52.1596 49.8693C52.0138 49.4583 51.7884 49.1286 51.4835 48.88C51.1785 48.6314 50.7941 48.5071 50.3301 48.5071C49.8627 48.5071 49.4749 48.6314 49.1667 48.88C48.8618 49.1286 48.6347 49.4583 48.4856 49.8693C48.3398 50.277 48.2668 50.7244 48.2668 51.2116C48.2668 51.7022 48.3398 52.1513 48.4856 52.5589C48.6347 52.9666 48.8618 53.2931 49.1667 53.5384C49.4749 53.7836 49.8627 53.9062 50.3301 53.9062ZM56.5671 55L54.32 47.3636H55.8562L57.3526 52.9716H57.4272L58.9286 47.3636H60.4649L61.9563 52.9467H62.0309L63.5174 47.3636H65.0536L62.8115 55H61.2951L59.744 49.4865H59.6296L58.0785 55H56.5671ZM67.5508 50.4659V55H66.0643V47.3636H67.4912V48.6065H67.5856C67.7613 48.2022 68.0364 47.8774 68.4109 47.6321C68.7888 47.3868 69.2644 47.2642 69.8378 47.2642C70.3581 47.2642 70.8139 47.3736 71.205 47.5923C71.5961 47.8078 71.8993 48.1293 72.1148 48.5568C72.3302 48.9844 72.4379 49.513 72.4379 50.1428V55H70.9514V50.3217C70.9514 49.7682 70.8072 49.3357 70.5189 49.0241C70.2305 48.7093 69.8344 48.5518 69.3307 48.5518C68.986 48.5518 68.6794 48.6264 68.4109 48.7756C68.1458 48.9247 67.9353 49.1435 67.7795 49.4318C67.6271 49.7169 67.5508 50.0616 67.5508 50.4659ZM75.518 44.8182V55H74.0315V44.8182H75.518ZM80.3345 55.1541C79.6186 55.1541 78.9938 54.9901 78.4602 54.6619C77.9266 54.3338 77.5123 53.8748 77.2173 53.2848C76.9223 52.6948 76.7748 52.0054 76.7748 51.2166C76.7748 50.4245 76.9223 49.7318 77.2173 49.1385C77.5123 48.5452 77.9266 48.0845 78.4602 47.7564C78.9938 47.4283 79.6186 47.2642 80.3345 47.2642C81.0504 47.2642 81.6751 47.4283 82.2088 47.7564C82.7424 48.0845 83.1567 48.5452 83.4516 49.1385C83.7466 49.7318 83.8941 50.4245 83.8941 51.2166C83.8941 52.0054 83.7466 52.6948 83.4516 53.2848C83.1567 53.8748 82.7424 54.3338 82.2088 54.6619C81.6751 54.9901 81.0504 55.1541 80.3345 55.1541ZM80.3394 53.9062C80.8034 53.9062 81.1879 53.7836 81.4928 53.5384C81.7978 53.2931 82.0231 52.9666 82.169 52.5589C82.3181 52.1513 82.3927 51.7022 82.3927 51.2116C82.3927 50.7244 82.3181 50.277 82.169 49.8693C82.0231 49.4583 81.7978 49.1286 81.4928 48.88C81.1879 48.6314 80.8034 48.5071 80.3394 48.5071C79.8721 48.5071 79.4843 48.6314 79.1761 48.88C78.8712 49.1286 78.6441 49.4583 78.495 49.8693C78.3491 50.277 78.2762 50.7244 78.2762 51.2116C78.2762 51.7022 78.3491 52.1513 78.495 52.5589C78.6441 52.9666 78.8712 53.2931 79.1761 53.5384C79.4843 53.7836 79.8721 53.9062 80.3394 53.9062ZM87.3757 55.169C86.8918 55.169 86.4543 55.0795 86.0632 54.9006C85.6721 54.7183 85.3622 54.4548 85.1335 54.1101C84.9081 53.7654 84.7954 53.3428 84.7954 52.8423C84.7954 52.4115 84.8783 52.0568 85.044 51.7784C85.2097 51.5 85.4335 51.2796 85.7152 51.1172C85.9969 50.9548 86.3118 50.8321 86.6598 50.7493C87.0078 50.6664 87.3624 50.6035 87.7237 50.5604C88.1811 50.5073 88.5523 50.4643 88.8373 50.4311C89.1224 50.3946 89.3295 50.3366 89.4588 50.2571C89.588 50.1776 89.6527 50.0483 89.6527 49.8693V49.8345C89.6527 49.4003 89.53 49.0639 89.2848 48.8253C89.0428 48.5866 88.6816 48.4673 88.201 48.4673C87.7005 48.4673 87.3061 48.5784 87.0177 48.8004C86.7327 49.0192 86.5355 49.2628 86.4261 49.5312L85.0291 49.2131C85.1948 48.7491 85.4368 48.3745 85.755 48.0895C86.0764 47.8011 86.446 47.5923 86.8636 47.4631C87.2812 47.3305 87.7204 47.2642 88.1811 47.2642C88.486 47.2642 88.8092 47.3007 89.1505 47.3736C89.4952 47.4432 89.8167 47.5724 90.115 47.7614C90.4166 47.9503 90.6636 48.2204 90.8558 48.5717C91.048 48.9197 91.1442 49.3722 91.1442 49.929V55H89.6925V53.956H89.6328C89.5367 54.1482 89.3925 54.3371 89.2003 54.5227C89.008 54.7083 88.7611 54.8625 88.4595 54.9851C88.1579 55.1077 87.7966 55.169 87.3757 55.169ZM87.6988 53.9759C88.1098 53.9759 88.4612 53.8946 88.7528 53.7322C89.0478 53.5698 89.2715 53.3577 89.424 53.0959C89.5798 52.8307 89.6576 52.5473 89.6576 52.2457V51.2614C89.6046 51.3144 89.5019 51.3641 89.3494 51.4105C89.2003 51.4536 89.0296 51.4917 88.8373 51.5249C88.6451 51.5547 88.4578 51.5829 88.2755 51.6094C88.0933 51.6326 87.9408 51.6525 87.8182 51.669C87.5298 51.7055 87.2663 51.7668 87.0277 51.853C86.7924 51.9392 86.6034 52.0634 86.4609 52.2259C86.3217 52.3849 86.2521 52.5971 86.2521 52.8622C86.2521 53.2301 86.388 53.5085 86.6598 53.6974C86.9316 53.883 87.2779 53.9759 87.6988 53.9759ZM95.5828 55.1491C94.9663 55.1491 94.4161 54.9917 93.9322 54.6768C93.4516 54.3587 93.0738 53.9062 92.7987 53.3196C92.5269 52.7296 92.391 52.022 92.391 51.1967C92.391 50.3714 92.5285 49.6655 92.8036 49.0788C93.082 48.4922 93.4632 48.0431 93.9471 47.7315C94.431 47.42 94.9795 47.2642 95.5927 47.2642C96.0667 47.2642 96.4478 47.3438 96.7362 47.5028C97.0278 47.6586 97.2532 47.8409 97.4123 48.0497C97.5747 48.2585 97.7007 48.4425 97.7901 48.6016H97.8796V44.8182H99.3661V55H97.9144V53.8118H97.7901C97.7007 53.9742 97.5714 54.1598 97.4024 54.3686C97.2366 54.5774 97.0079 54.7597 96.7163 54.9155C96.4246 55.0713 96.0468 55.1491 95.5828 55.1491ZM95.9109 53.8814C96.3384 53.8814 96.6997 53.7687 96.9947 53.5433C97.293 53.3146 97.5184 52.9981 97.6708 52.5938C97.8266 52.1894 97.9045 51.7187 97.9045 51.1818C97.9045 50.6515 97.8283 50.1875 97.6758 49.7898C97.5233 49.392 97.2996 49.0821 97.0046 48.8601C96.7097 48.638 96.3451 48.527 95.9109 48.527C95.4634 48.527 95.0906 48.643 94.7923 48.875C94.494 49.107 94.2686 49.4235 94.1161 49.8246C93.967 50.2256 93.8924 50.678 93.8924 51.1818C93.8924 51.6922 93.9686 52.1513 94.1211 52.5589C94.2736 52.9666 94.499 53.2898 94.7972 53.5284C95.0989 53.7637 95.4701 53.8814 95.9109 53.8814ZM106.81 49.228L105.463 49.4666C105.406 49.2943 105.317 49.1302 105.194 48.9744C105.075 48.8187 104.913 48.6911 104.707 48.5916C104.502 48.4922 104.245 48.4425 103.936 48.4425C103.516 48.4425 103.164 48.5369 102.883 48.7259C102.601 48.9115 102.46 49.1518 102.46 49.4467C102.46 49.7019 102.554 49.9074 102.743 50.0632C102.932 50.219 103.237 50.3466 103.658 50.446L104.871 50.7244C105.574 50.8868 106.097 51.1371 106.442 51.4751C106.787 51.8132 106.959 52.2524 106.959 52.7926C106.959 53.25 106.827 53.6577 106.561 54.0156C106.3 54.3703 105.933 54.6487 105.463 54.8509C104.995 55.053 104.454 55.1541 103.837 55.1541C102.982 55.1541 102.284 54.9718 101.744 54.6072C101.204 54.2393 100.872 53.7173 100.75 53.0412L102.186 52.8224C102.276 53.197 102.46 53.4804 102.738 53.6726C103.017 53.8615 103.38 53.956 103.827 53.956C104.314 53.956 104.704 53.8549 104.995 53.6527C105.287 53.4472 105.433 53.197 105.433 52.902C105.433 52.6634 105.343 52.4628 105.164 52.3004C104.989 52.138 104.719 52.0154 104.354 51.9325L103.061 51.6491C102.349 51.4867 101.822 51.2282 101.481 50.8736C101.142 50.5189 100.973 50.0698 100.973 49.5263C100.973 49.0755 101.099 48.6811 101.351 48.343C101.603 48.005 101.951 47.7415 102.395 47.5526C102.839 47.3603 103.348 47.2642 103.922 47.2642C104.747 47.2642 105.396 47.4432 105.87 47.8011C106.344 48.1558 106.658 48.6314 106.81 49.228Z" fill="#F05321"/>
<defs>
<linearGradient id="paint0_linear_6_589" x1="22.2229" y1="60.1483" x2="25.714" y2="73.1774" gradientUnits="userSpaceOnUse">
<stop stop-color="#FFAA26"/>
<stop offset="1" stop-color="#FF9F23"/>
</linearGradient>
<linearGradient id="paint1_linear_6_589" x1="26.0807" y1="56.1196" x2="30.2067" y2="71.5181" gradientUnits="userSpaceOnUse">
<stop stop-color="#FFAA26"/>
<stop offset="1" stop-color="#FF9F23"/>
</linearGradient>
<linearGradient id="paint2_linear_6_589" x1="15.7898" y1="49.666" x2="19.8503" y2="64.8202" gradientUnits="userSpaceOnUse">
<stop stop-color="#FFAA26"/>
<stop offset="1" stop-color="#FF9F23"/>
</linearGradient>
<linearGradient id="paint3_linear_6_589" x1="20.3767" y1="47.9131" x2="24.4931" y2="63.2758" gradientUnits="userSpaceOnUse">
<stop stop-color="#FFAA26"/>
<stop offset="1" stop-color="#FF9F23"/>
</linearGradient>
<linearGradient id="paint4_linear_6_589" x1="11.5691" y1="38.7701" x2="16.0223" y2="55.3896" gradientUnits="userSpaceOnUse">
<stop stop-color="#FFAA26"/>
<stop offset="1" stop-color="#FF9F23"/>
</linearGradient>
<linearGradient id="paint5_linear_6_589" x1="17.5454" y1="39.1793" x2="21.4623" y2="53.7974" gradientUnits="userSpaceOnUse">
<stop stop-color="#FFAA26"/>
<stop offset="1" stop-color="#FF9F23"/>
</linearGradient>
<linearGradient id="paint6_linear_6_589" x1="9.66699" y1="27.4195" x2="14.2874" y2="44.6631" gradientUnits="userSpaceOnUse">
<stop stop-color="#FFAA26"/>
<stop offset="1" stop-color="#FF9F23"/>
</linearGradient>
<linearGradient id="paint7_linear_6_589" x1="16.5411" y1="30.0031" x2="20.0654" y2="43.1563" gradientUnits="userSpaceOnUse">
<stop stop-color="#FFAA26"/>
<stop offset="1" stop-color="#FF9F23"/>
</linearGradient>
<linearGradient id="paint8_linear_6_589" x1="10.8158" y1="17.498" x2="15.0677" y2="33.3662" gradientUnits="userSpaceOnUse">
<stop stop-color="#FFAA26"/>
<stop offset="1" stop-color="#FF9F23"/>
</linearGradient>
<linearGradient id="paint9_linear_6_589" x1="17.3438" y1="21.5905" x2="20.1973" y2="32.2402" gradientUnits="userSpaceOnUse">
<stop stop-color="#FFAA26"/>
<stop offset="1" stop-color="#FF9F23"/>
</linearGradient>
<linearGradient id="paint10_linear_6_589" x1="14.0718" y1="8.15152" x2="17.9963" y2="22.7982" gradientUnits="userSpaceOnUse">
<stop stop-color="#FFAA26"/>
<stop offset="1" stop-color="#FF9F23"/>
</linearGradient>
<linearGradient id="paint11_linear_6_589" x1="19.9921" y1="13.4664" x2="22.2897" y2="22.0412" gradientUnits="userSpaceOnUse">
<stop stop-color="#FFAA26"/>
<stop offset="1" stop-color="#FF9F23"/>
</linearGradient>
<linearGradient id="paint12_linear_6_589" x1="21.4883" y1="1.52972" x2="24.6149" y2="13.1981" gradientUnits="userSpaceOnUse">
<stop stop-color="#FFAA26"/>
<stop offset="1" stop-color="#FF9F23"/>
</linearGradient>
<linearGradient id="paint13_linear_6_589" x1="115.284" y1="56.1236" x2="111.158" y2="71.522" gradientUnits="userSpaceOnUse">
<stop stop-color="#FFC02B"/>
<stop offset="1" stop-color="#FE9620"/>
</linearGradient>
<linearGradient id="paint14_linear_6_589" x1="119.138" y1="60.1503" x2="115.649" y2="73.1707" gradientUnits="userSpaceOnUse">
<stop stop-color="#FFC02B"/>
<stop offset="1" stop-color="#FE9620"/>
</linearGradient>
<linearGradient id="paint15_linear_6_589" x1="120.979" y1="47.9112" x2="116.861" y2="63.2774" gradientUnits="userSpaceOnUse">
<stop stop-color="#FFC02B"/>
<stop offset="1" stop-color="#FE9620"/>
</linearGradient>
<linearGradient id="paint16_linear_6_589" x1="125.562" y1="49.6563" x2="121.502" y2="64.8106" gradientUnits="userSpaceOnUse">
<stop stop-color="#FFC02B"/>
<stop offset="1" stop-color="#FE9620"/>
</linearGradient>
<linearGradient id="paint17_linear_6_589" x1="123.794" y1="39.1768" x2="119.877" y2="53.7948" gradientUnits="userSpaceOnUse">
<stop stop-color="#FFC02B"/>
<stop offset="1" stop-color="#FE9620"/>
</linearGradient>
<linearGradient id="paint18_linear_6_589" x1="129.775" y1="38.768" x2="125.322" y2="55.3883" gradientUnits="userSpaceOnUse">
<stop stop-color="#FFC02B"/>
<stop offset="1" stop-color="#FE9620"/>
</linearGradient>
<linearGradient id="paint19_linear_6_589" x1="124.811" y1="30.0142" x2="121.286" y2="43.1674" gradientUnits="userSpaceOnUse">
<stop stop-color="#FFC02B"/>
<stop offset="1" stop-color="#FE9620"/>
</linearGradient>
<linearGradient id="paint20_linear_6_589" x1="131.676" y1="27.4321" x2="127.057" y2="44.6722" gradientUnits="userSpaceOnUse">
<stop stop-color="#FFC02B"/>
<stop offset="1" stop-color="#FE9620"/>
</linearGradient>
<linearGradient id="paint21_linear_6_589" x1="124.016" y1="21.5932" x2="121.163" y2="32.2431" gradientUnits="userSpaceOnUse">
<stop stop-color="#FFC02B"/>
<stop offset="1" stop-color="#FE9620"/>
</linearGradient>
<linearGradient id="paint22_linear_6_589" x1="130.524" y1="17.4954" x2="126.272" y2="33.3637" gradientUnits="userSpaceOnUse">
<stop stop-color="#FFC02B"/>
<stop offset="1" stop-color="#FE9620"/>
</linearGradient>
<linearGradient id="paint23_linear_6_589" x1="121.372" y1="13.4703" x2="119.074" y2="22.045" gradientUnits="userSpaceOnUse">
<stop stop-color="#FFC02B"/>
<stop offset="1" stop-color="#FE9620"/>
</linearGradient>
<linearGradient id="paint24_linear_6_589" x1="127.288" y1="8.15032" x2="123.362" y2="22.8007" gradientUnits="userSpaceOnUse">
<stop stop-color="#FFC02B"/>
<stop offset="1" stop-color="#FE9620"/>
</linearGradient>
<linearGradient id="paint25_linear_6_589" x1="119.857" y1="1.53899" x2="116.733" y2="13.1977" gradientUnits="userSpaceOnUse">
<stop stop-color="#FFC02B"/>
<stop offset="1" stop-color="#FE9620"/>
</linearGradient>
</defs>
</svg>
